<?xml version="1.0" encoding="utf-8"?>
<svg version="1.1" id="layer" xmlns="http://www.w3.org/2000/svg" xmlns:xlink="http://www.w3.org/1999/xlink" x="0px" y="0px" viewBox="0 0 652 652" style="enable-background:new 0 0 652 652;" xml:space="preserve">
<style type="text/css">
.st0{fill:#B1B5C4;}
</style>
<path class="st0" d="M191.8,298.5l-67.7-149.2H88.9l-66.9,148l-0.5,1.3H59l13.2-31.6h68.1l13.2,31.6H191.8L191.8,298.5z M128.7,239.2H84
	l22.4-53.3L128.7,239.2z M263.4,298.6l48.3-115.2h-33.5l-31.9,75.9l-30.8-75.9h-35.9l48.2,115.2H263.4z M415.6,194.4
	c-9.6-8.5-23.3-12.8-41.1-12.8c-9.1,0-18.3,1.3-26.9,3.6c-8.7,2.4-16.2,5.8-22.5,10.2l-0.6,0.5l12.6,24.6l0.8-0.6
	c3.9-3.1,8.8-5.7,14.6-7.6c5.7-1.9,11.6-2.8,17.6-2.8c8.5,0,14.8,1.9,19,5.5c3.9,3.5,6.1,8.7,6.3,15.1h-25.3
	c-16.7,0-29.3,3.1-37.3,9.3c-8.2,6.1-12.3,14.8-12.3,25.5c0,6.8,1.7,12.9,5.2,18.3c3.5,5.4,8.5,9.6,14.9,12.6c6.5,3,14.2,4.6,23,4.6
	c15.7,0,27.1-4.6,33.7-13.9v12.1H430v-65.6C430,215.9,425.1,202.9,415.6,194.4z M386.5,272.6c-4.3,2.5-9.1,3.8-14.5,3.8
	c-5.5,0-9.9-1.3-13.1-3.5c-3.1-2.4-4.6-5.4-4.6-9.3c0-8.3,6.3-12.4,19.4-12.4h21.6v10.5C393.6,266.4,390.6,270.1,386.5,272.6z
	 M21.6,332.2h35.9v122.5H171v35.9H57.5v0H21.6v0l0-35.9L21.6,332.2z M286.1,386.4c-9.6-8.5-23.3-12.7-41.1-12.7
	c-9.1,0-18.3,1.3-26.9,3.6c-8.7,2.4-16.2,5.8-22.5,10.2L195,388l12.6,24.6l0.8-0.6c3.9-3.1,8.8-5.7,14.6-7.6
	c5.7-1.9,11.6-2.8,17.6-2.8c8.5,0,14.8,1.9,19,5.5c3.9,3.5,6.1,8.7,6.3,15.1h-25.3c-16.7,0-29.3,3.1-37.3,9.3
	c-8.2,6.1-12.3,14.8-12.3,25.5c0,6.8,1.7,12.9,5.2,18.3c3.5,5.4,8.5,9.6,14.9,12.6c6.5,3,14.2,4.6,23,4.6c15.7,0,27.1-4.6,33.7-13.9
	v12.1h32.6V425C300.5,408,295.7,394.9,286.1,386.4z M257,464.6c-4.2,2.5-9.1,3.8-14.5,3.8c-5.5,0-9.9-1.3-13.1-3.5
	c-3.1-2.4-4.6-5.4-4.6-9.3c0-8.3,6.3-12.4,19.4-12.4H266v10.5C264.1,458.5,261.1,462.1,257,464.6z M421.9,381
	c-8.8-4.9-18.6-7.4-29.3-7.4c-13.8,0-25,4.3-33.4,12.4v-53.8h-34.6v158.2h33.2v-11.7c8.2,8.8,20,13.4,34.8,13.4
	c10.7,0,20.5-2.5,29.3-7.4c8.8-4.9,15.7-12,20.6-20.8c5-8.8,7.6-19.4,7.6-31.2c0-11.8-2.5-22.2-7.6-31.2
	C437.4,393,430.5,385.9,421.9,381z M386.9,402.4c8.2,0,14.9,2.8,20.1,8.3c5.2,5.5,7.9,13.1,7.9,22.4s-2.7,16.8-7.9,22.4
	c-5.2,5.5-12,8.3-20.1,8.3c-8.2,0-14.9-2.8-20.1-8.3c-5.2-5.5-7.9-13.1-7.9-22.4s2.7-16.8,7.9-22.4
	C372,405.3,378.7,402.4,386.9,402.4z M559.7,435.3c-4.4-4.7-9.8-8-15.7-9.8c-6-1.7-13.5-3.5-22.8-5c-8.2-1.3-14.3-2.5-17.9-3.9
	c-3.5-1.3-5.2-3.5-5.2-6.6c0-2.8,1.6-5,4.9-6.8c3.3-1.9,8.5-2.8,15.4-2.8c11.6,0,22.5,2.8,32.3,8.3l0.8,0.5l11.6-25l-0.6-0.5
	c-5.2-3.1-12-5.7-20-7.4c-8-1.7-16.1-2.7-24.1-2.7c-10.9,0-20.5,1.6-28.5,4.7c-8,3.1-14.3,7.6-18.6,13.2c-4.2,5.7-6.5,12.3-6.5,19.7
	c0,8.8,2.4,15.6,6.9,20.5c4.6,4.7,9.9,8,16.1,9.9c6,1.9,13.8,3.5,23.1,4.9c7.7,0.9,13.5,2.2,17.3,3.5c3.5,1.3,5.2,3.3,5.2,6.1
	c0,6.3-6.8,9.4-20,9.4c-6.8,0-13.8-0.9-20.8-3c-7.1-2-13.2-4.6-18.1-7.9l-0.8-0.5l-11.6,25.2l0.6,0.5c5.4,3.6,12.7,6.6,21.7,8.8
	c9,2.4,18.4,3.5,27.9,3.5c11.2,0,20.9-1.6,29.1-4.6c8.2-3,14.5-7.4,18.9-13.1c4.2-5.7,6.5-12.1,6.5-19.4
	C566.5,446.8,564.1,440.1,559.7,435.3z"/>
<path class="st0" d="M621.6,456.1H587v34.6h34.6V456.1z"/>
</svg>
