
<!-- Generator: Adobe Illustrator 24.0.0, SVG Export Plug-In . SVG Version: 6.00 Build 0)  -->
<svg version="1.1" id="Layer_1" xmlns="http://www.w3.org/2000/svg" xmlns:xlink="http://www.w3.org/1999/xlink" x="0px" y="0px"
	 viewBox="0 0 300 300" style="enable-background:new 0 0 300 300;" xml:space="preserve">
<style type="text/css">
	.st0{fill:#B1B5C4;}
	.st1{fill-rule:evenodd;clip-rule:evenodd;fill:#141416;}
</style>
<path class="st0" d="M150,300c82.845,0,150-67.155,150-150S232.845,0,150,0S0,67.155,0,150S67.155,300,150,300z"/>
<path class="st1" d="M86.655,200.295c-4.485-2.745-7.23-7.62-7.23-12.87v-29.31c0-3.48,2.835-6.3,6.315-6.285c1.11,0,2.205,0.3,3.165,0.855
	l66.135,38.565c3.87,2.25,6.255,6.39,6.255,10.875v30.36c0.015,4.17-3.36,7.56-7.53,7.56c-1.395,0-2.775-0.39-3.96-1.11L86.655,200.295z
	 M185.235,144.66c3.87,2.25,6.24,6.405,6.255,10.875v61.62c0,1.815-0.975,3.495-2.565,4.38l-14.475,8.145c-0.18,0.105-0.375,0.18-0.585,0.24v-34.215
	c0-4.425-2.325-8.535-6.135-10.815L109.65,150.15v-38.625c0-3.48,2.835-6.3,6.315-6.285c1.11,0,2.205,0.3,3.165,0.855L185.235,144.66z M214.185,99.15
	c3.885,2.25,6.27,6.405,6.27,10.89v90c-0.015,1.845-1.035,3.54-2.655,4.425l-13.725,7.41V149.22c0-4.425-2.325-8.52-6.105-10.8L138.6,102.81V66.18
	c0-1.11,0.3-2.205,0.84-3.165c1.755-3,5.61-4.02,8.61-2.28L214.185,99.15z"/>
</svg>
