<?xml version="1.0" encoding="utf-8"?>
<!-- Generator: Adobe Illustrator 24.3.0, SVG Export Plug-In . SVG Version: 6.00 Build 0)  -->
<svg version="1.0" id="katman_1" xmlns="http://www.w3.org/2000/svg" xmlns:xlink="http://www.w3.org/1999/xlink" x="0px" y="0px"
	 viewBox="45 215 900 230" style="enable-background:new 45 225 900 230;" xml:space="preserve">
<style type="text/css">
	.st0{fill:#B1B5C4;}
</style>
<path class="st0" d="M106.05,198.16c-7.49,0.04-14.89,1.56-21.8,4.47c-6.9,2.92-13.17,7.17-18.43,12.52
	c-5.27,5.35-9.43,11.69-12.26,18.66c-2.83,6.97-4.27,14.43-4.23,21.96v19.03h46.09v-27.57c0-1.29,0.25-2.58,0.75-3.77
	c0.49-1.2,1.21-2.28,2.13-3.2c0.91-0.92,1.99-1.64,3.18-2.14c1.19-0.5,2.46-0.75,3.75-0.75h1.66c1.29,0,2.56,0.25,3.75,0.75
	c1.19,0.5,2.27,1.22,3.18,2.14c0.91,0.92,1.63,2,2.13,3.2c0.49,1.2,0.75,2.48,0.75,3.77v73.91c6.05,0,12.05-1.2,17.64-3.53
	c5.59-2.33,10.67-5.74,14.95-10.04c4.28-4.3,7.67-9.41,9.99-15.03c2.32-5.62,3.51-11.65,3.51-17.73v-19.03
	c0.03-15.25-5.94-29.9-16.61-40.73c-5.24-5.35-11.48-9.59-18.37-12.49C120.9,199.64,113.51,198.15,106.05,198.16z"/>
<path class="st0" d="M106.88,358.54h-1.66c-1.29,0-2.56-0.26-3.75-0.75c-1.19-0.5-2.27-1.22-3.18-2.14c-0.91-0.92-1.63-2-2.13-3.2
	c-0.49-1.2-0.75-2.48-0.75-3.77v-73.91c-6.05,0-12.05,1.2-17.64,3.53c-5.59,2.33-10.67,5.74-14.95,10.04
	c-4.28,4.3-7.67,9.41-9.99,15.03c-2.32,5.62-3.51,11.65-3.51,17.73v18.76c-0.08,7.54,1.33,15.02,4.15,22
	c2.82,6.99,6.98,13.34,12.26,18.7c5.27,5.36,11.55,9.61,18.47,12.51s14.34,4.4,21.84,4.4c7.5,0,14.92-1.49,21.84-4.4
	c6.92-2.9,13.2-7.16,18.47-12.51c5.27-5.36,9.44-11.71,12.26-18.7c2.82-6.99,4.23-14.47,4.15-22v-18.76h-46.09v27.57
	c0,1.29-0.25,2.58-0.75,3.77c-0.49,1.2-1.22,2.28-2.13,3.2c-0.91,0.92-1.99,1.64-3.18,2.14
	C109.44,358.29,108.17,358.54,106.88,358.54z M241.55,256.66H225.4v82.39h47.41v-15.53h-31.25
	C241.55,323.52,241.55,256.66,241.55,256.66z M324.53,287.18c-2.28-2.85-5.2-5.11-8.51-6.6c-3.32-1.49-6.94-2.17-10.57-1.99
	c-3.79-0.03-7.55,0.76-11.01,2.31c-3.46,1.55-6.55,3.84-9.07,6.69c-5.39,6.07-8.37,13.93-8.37,22.07c0,8.14,2.98,16,8.37,22.07
	c2.51,2.86,5.6,5.14,9.07,6.69c3.46,1.55,7.22,2.34,11.01,2.31c8.2,0,14.56-2.86,19.08-8.59v6.94h15.1v-58.85h-15.1V287.18z
	 M319.91,321.6c-1.52,1.53-3.34,2.74-5.35,3.53c-2,0.8-4.15,1.18-6.3,1.11c-2.15,0.07-4.28-0.31-6.28-1.11
	c-1.99-0.8-3.8-2.01-5.31-3.54c-2.94-3.28-4.57-7.53-4.57-11.95c0-4.41,1.63-8.67,4.57-11.95c1.51-1.53,3.32-2.74,5.31-3.54
	c1.99-0.8,4.13-1.18,6.28-1.11c2.15-0.06,4.3,0.32,6.3,1.11c2,0.8,3.82,2,5.35,3.53c2.97,3.26,4.62,7.52,4.62,11.95
	C324.53,314.08,322.89,318.34,319.91,321.6z M378.54,319.74l-15.27-39.55h-16.51l23.99,56.97c-1,3.4-2.98,6.43-5.68,8.71
	c-2.84,1.93-6.24,2.85-9.66,2.59v14.13c6.66,0.62,13.33-1.2,18.77-5.13c5.02-3.81,9.06-9.92,12.1-18.32l21.34-58.95h-16.15
	L378.54,319.74z M440.31,278.57c-4.12-0.15-8.22,0.57-12.05,2.1c-3.83,1.53-7.3,3.84-10.19,6.79c-5.59,6.04-8.68,13.99-8.66,22.24
	c0.02,8.25,3.16,16.18,8.78,22.19c5.85,5.88,13.62,8.83,23.3,8.83c11.23,0,19.74-4.2,25.52-12.59l-12.17-7.06
	c-1.55,1.98-3.55,3.54-5.83,4.57c-2.28,1.03-4.78,1.48-7.28,1.32c-8.98,0-14.48-3.69-16.51-11.06h44.13
	c0.38-2.06,0.57-4.15,0.58-6.24c0.22-8.2-2.78-16.15-8.37-22.13c-2.71-2.93-6-5.24-9.66-6.78S444.28,278.46,440.31,278.57z
	 M424.98,304.11c0.67-3.46,2.53-6.57,5.27-8.77c2.9-2.16,6.46-3.26,10.07-3.12c3.3-0.04,6.53,0.99,9.19,2.94
	c2.84,2.2,4.74,5.39,5.33,8.94C454.83,304.11,424.98,304.11,424.98,304.11z M495.57,290.32v-10.12h-15.1v58.85h15.1v-28.13
	c0-5.65,1.81-9.69,5.44-12.12c3.63-2.43,8.03-3.44,12.35-2.82v-16.94c-3.8-0.05-7.54,0.93-10.83,2.82
	C499.28,283.74,496.81,286.75,495.57,290.32z M586.98,269.4v-12.74h-53.71v15.54h33.25l-34.11,53.88v12.97h55.23v-15.53h-34.77
	C552.87,323.51,586.98,269.4,586.98,269.4z M623.28,278.57c-4.12-0.15-8.22,0.57-12.05,2.1c-3.83,1.53-7.3,3.84-10.19,6.79
	c-5.59,6.04-8.69,13.99-8.66,22.24c0.02,8.25,3.16,16.18,8.78,22.19c5.85,5.88,13.62,8.83,23.29,8.83c11.24,0,19.74-4.2,25.52-12.59
	l-12.17-7.06c-1.55,1.97-3.55,3.54-5.83,4.57c-2.28,1.03-4.78,1.48-7.28,1.32c-8.98,0-14.48-3.69-16.51-11.06h44.13
	c0.38-2.06,0.57-4.15,0.58-6.24c0.23-8.2-2.78-16.15-8.37-22.13c-2.7-2.93-6-5.24-9.66-6.78S627.25,278.46,623.28,278.57
	L623.28,278.57z M607.95,304.11c0.67-3.46,2.53-6.57,5.27-8.77c2.9-2.16,6.46-3.26,10.07-3.12c3.3-0.04,6.53,0.99,9.19,2.94
	c2.84,2.2,4.74,5.39,5.32,8.94L607.95,304.11z M678.53,290.32v-10.12h-15.1v58.85h15.1v-28.13c0-5.65,1.81-9.69,5.44-12.12
	s8.03-3.44,12.35-2.82v-16.94c-3.79-0.05-7.54,0.93-10.83,2.82C682.24,283.74,679.77,286.75,678.53,290.32z M730.76,278.56
	c-7.09,0.08-13.93,2.62-19.36,7.19c-5.43,4.57-9.13,10.9-10.45,17.9c-1.32,7-0.2,14.24,3.19,20.5c3.39,6.26,8.82,11.15,15.38,13.83
	c6.56,2.69,13.85,3,20.62,0.9c6.77-2.1,12.6-6.5,16.52-12.43c3.92-5.94,5.66-13.06,4.95-20.14c-0.72-7.09-3.85-13.71-8.86-18.74
	c-2.86-2.94-6.29-5.25-10.08-6.8C738.91,279.22,734.85,278.47,730.76,278.56z M742.11,321.29c-1.48,1.5-3.25,2.69-5.21,3.47
	c-1.95,0.79-4.04,1.17-6.15,1.11c-2.1,0.06-4.19-0.32-6.13-1.1c-1.94-0.79-3.71-1.97-5.18-3.48c-2.9-3.18-4.51-7.34-4.51-11.65
	c0-4.31,1.61-8.47,4.51-11.65c1.47-1.51,3.23-2.69,5.18-3.48c1.94-0.79,4.03-1.17,6.13-1.11c2.1-0.06,4.19,0.32,6.15,1.11
	c1.96,0.79,3.73,1.97,5.21,3.47c2.93,3.16,4.57,7.33,4.57,11.65C746.68,313.96,745.05,318.12,742.11,321.29z M793.45,320.94h-18.38
	v18.13h18.38V320.94z"/>
</svg>
