<svg width="122" height="30" viewBox="0 0 122 30" fill="none" xmlns="http://www.w3.org/2000/svg">
<g clip-path="url(#clip0_5_86)">
<path d="M33.2031 16.9872C33.2031 12.9402 36.1675 10.0274 40.2402 10.0274C44.313 10.0274 47.2773 12.9402 47.2773 16.9872C47.2773 21.0342 44.313 23.947 40.2402 23.947C36.1932 23.947 33.2031 21.0342 33.2031 16.9872ZM44.3388 16.9872C44.3388 14.4611 42.7148 12.5536 40.2402 12.5536C37.7656 12.5536 36.1675 14.4611 36.1675 16.9872C36.1675 19.4876 37.7656 21.4209 40.2402 21.4209C42.7148 21.3951 44.3388 19.4876 44.3388 16.9872Z" fill="#B1B5C4"/>
<path d="M48.3857 21.8058L49.9323 19.6148C50.8861 20.5943 52.3554 21.4192 54.2113 21.4192C55.7837 21.4192 56.557 20.6974 56.557 19.9241C56.557 17.5526 48.7981 19.1766 48.7981 14.0985C48.7981 11.8559 50.7314 10 53.902 10C56.0414 10 57.8201 10.6444 59.1605 11.8817L57.5623 13.9696C56.4797 12.9644 55.0104 12.5004 53.6442 12.5004C52.4069 12.5004 51.7367 13.0417 51.7367 13.8408C51.7367 15.9803 59.4698 14.5368 59.4698 19.5633C59.4698 22.0378 57.717 23.8937 54.0824 23.8937C51.5047 23.9453 49.6488 23.0689 48.3857 21.8058Z" fill="#B1B5C4"/>
<path d="M73.1312 23.7129V14.2786L69.3425 23.7129H68.0793L64.29 14.2786V23.7129H61.4287V10.2316H65.45L68.7237 18.3771L71.9975 10.2316H76.0443V23.6872H73.1312V23.7129Z" fill="#B1B5C4"/>
<path d="M78.0293 16.9857C78.0293 12.9388 80.9937 10.0259 85.0662 10.0259C89.1393 10.0259 92.1037 12.9388 92.1037 16.9857C92.1037 21.0327 89.1393 23.9455 85.0662 23.9455C80.9937 23.9455 78.0293 21.0327 78.0293 16.9857ZM89.1649 16.9857C89.1649 14.4596 87.5412 12.5521 85.0662 12.5521C82.5918 12.5521 80.9937 14.4596 80.9937 16.9857C80.9937 19.4861 82.5918 21.4193 85.0662 21.4193C87.5412 21.3936 89.1649 19.4861 89.1649 16.9857Z" fill="#B1B5C4"/>
<path d="M93.2119 21.8058L94.7588 19.6148C95.7119 20.5943 97.1813 21.4192 99.0375 21.4192C100.61 21.4192 101.383 20.6974 101.383 19.9241C101.383 17.5526 93.6244 19.1766 93.6244 14.0985C93.6244 11.8559 95.5575 10 98.7282 10C100.868 10 102.646 10.6444 103.987 11.8817L102.388 13.9696C101.306 12.9644 99.8363 12.5004 98.4707 12.5004C97.2332 12.5004 96.5632 13.0417 96.5632 13.8408C96.5632 15.9803 104.296 14.5368 104.296 19.5633C104.296 22.0378 102.543 23.8937 98.9088 23.8937C96.3307 23.9453 94.475 23.0689 93.2119 21.8058Z" fill="#B1B5C4"/>
<path d="M106.229 23.7129V10.2316H109.116V23.6872H106.229V23.7129Z" fill="#B1B5C4"/>
<path d="M110.869 21.8058L112.416 19.6148C113.369 20.5943 114.839 21.4192 116.694 21.4192C118.267 21.4192 119.041 20.6974 119.041 19.9241C119.041 17.5526 111.281 19.1766 111.281 14.0985C111.281 11.8559 113.215 10 116.386 10C118.525 10 120.303 10.6444 121.644 11.8817L120.046 13.9696C118.963 12.9644 117.494 12.5004 116.128 12.5004C114.89 12.5004 114.22 13.0417 114.22 13.8408C114.22 15.9803 121.953 14.5368 121.953 19.5633C121.953 22.0378 120.201 23.8937 116.566 23.8937C113.963 23.9453 112.106 23.0689 110.869 21.8058Z" fill="#B1B5C4"/>
<path fill-rule="evenodd" clip-rule="evenodd" d="M25.069 1.64201C26.8359 2.95118 27.8176 4.12722 28.1229 5.30326C28.3193 5.96894 28.1448 6.76775 27.7085 7.36687C27.2722 7.966 26.5742 8.29881 25.7671 8.29881C25.4617 8.29881 25.1563 8.25444 24.8509 8.16569C24.5455 9.03106 24.3274 9.87425 24.2619 10.6065V10.7758C22.6913 8.00218 20.1609 5.96893 17.1506 4.94823C17.2379 4.92604 17.8923 4.72633 19.0484 4.01627C18.9176 3.81657 18.8085 3.59468 18.7213 3.41717L18.7213 3.41716C18.4813 2.84024 18.5685 1.88609 18.9394 1.17604C19.2448 0.576922 19.7246 0.177514 20.27 0.0665669C20.4881 0.0221883 20.7063 0 20.9463 0C22.146 0 23.6511 0.599112 25.069 1.64201ZM27.5122 5.48067C27.774 6.52356 26.9669 8.07681 24.9818 7.52212C24.8073 7.4555 24.6328 7.41112 24.4801 7.38894C24.2838 7.85494 24.0656 8.3875 23.913 8.98656C22.6041 7.21144 20.859 5.79132 18.8521 4.88156C18.9309 4.83351 19.0134 4.78416 19.0991 4.73292C19.3696 4.57121 19.6717 4.39055 19.9865 4.1715C19.6593 3.77209 19.4193 3.41706 19.3103 3.17298C19.0485 2.55168 19.3539 0.931855 20.401 0.709962C21.448 0.488071 23.084 0.976237 24.6983 2.17446C26.3125 3.37269 27.2286 4.43777 27.5122 5.48067Z" fill="#B1B5C4"/>
<path d="M21.7534 2.90678C22.1897 3.0843 22.7568 3.39495 23.4549 3.86093C24.2838 4.41566 25.0036 5.03696 25.4618 5.52513C24.6983 6.54581 24.1965 7.94375 23.8911 8.92013C24.0438 9.142 24.2183 9.36387 24.3711 9.58575C24.5238 9.03106 24.7855 8.21006 25.1345 7.389C25.2218 7.41125 25.3308 7.41125 25.4399 7.41125C25.7017 7.41125 26.0071 7.36681 26.247 7.16712C26.4215 7.034 26.6179 6.78994 26.5961 6.34613C26.5961 5.92454 26.2688 5.39199 25.5926 4.7485C25.1127 4.28253 24.4583 3.77217 23.8039 3.30619C21.9279 2.0414 20.6191 1.68637 20.0301 2.28548C19.6374 2.68489 19.6811 3.17306 19.8119 3.52809C19.1139 3.99406 18.5249 4.3269 18.1323 4.54879C18.3941 4.63755 18.634 4.7485 18.8958 4.85945C19.5938 4.48223 20.5973 3.83874 21.7534 2.90678ZM25.8762 6.07986C25.9416 6.19081 25.9634 6.30175 25.9634 6.36831C25.9634 6.568 25.898 6.63463 25.8544 6.679C25.7671 6.74556 25.5926 6.78994 25.4399 6.78994C25.5708 6.52363 25.7235 6.30175 25.8762 6.07986ZM20.4882 2.77365C20.5536 2.70708 20.7281 2.6627 21.0118 2.70708C20.7936 2.88459 20.5754 3.03992 20.3573 3.19524C20.3355 3.03992 20.3573 2.88459 20.4882 2.77365Z" fill="#B1B5C4"/>
<path d="M13.6169 3.72773C6.48377 3.72773 0.703125 9.60787 0.703125 16.8638C0.703125 24.1197 6.48377 29.9999 13.6169 29.9999C20.75 29.9999 26.5306 24.1197 26.5306 16.8638C26.5306 9.60787 20.7282 3.72773 13.6169 3.72773ZM13.6169 29.2677C6.87642 29.2677 1.42298 23.7203 1.42298 16.8638C1.42298 10.0073 6.87642 4.45997 13.6169 4.45997C20.3573 4.45997 25.8107 10.0073 25.8107 16.8638C25.8107 23.7203 20.3355 29.2677 13.6169 29.2677Z" fill="#B1B5C4"/>
<path d="M25.2 16.7529C25.2 23.2544 20.0083 28.5355 13.6169 28.5355C7.22545 28.5355 2.01196 23.2544 2.01196 16.7529H25.2Z" fill="#B1B5C4"/>
<g opacity="0.6">
<path opacity="0.6" d="M24.2837 16.7529C24.2837 23.0991 19.3538 28.2914 13.1587 28.5355C13.3114 28.5355 13.4641 28.5355 13.6168 28.5355C20.0082 28.5355 25.1999 23.2544 25.1999 16.7529H24.2837Z" fill="url(#paint0_linear_5_86)"/>
</g>
<g opacity="0.7">
<path opacity="0.7" d="M3.64799 16.7529H2.01196C2.01196 23.2544 7.20364 28.5355 13.5951 28.5355C13.8786 28.5355 14.1404 28.5355 14.4022 28.5133C8.40339 28.0695 3.64799 22.9659 3.64799 16.7529Z" fill="url(#paint1_linear_5_86)"/>
</g>
<path d="M25.1782 16.8639C25.1782 15.5104 22.8659 14.7337 19.7902 14.4674C17.5652 14.2899 15.3183 14.5118 12.7443 15.3106C10.5193 15.9763 8.51245 15.8654 7.05095 15.6879C3.80069 15.3106 2.01196 15.2663 2.01196 16.8639C2.01196 19.1716 6.63648 22.0562 13.5733 21.0577C17.0853 20.5473 18.8958 19.5044 20.9681 18.7944C23.215 18.0399 25.1782 18.0621 25.1782 16.8639Z" fill="#B1B5C4"/>
</g>
<defs>
<linearGradient id="paint0_linear_5_86" x1="26.2912" y1="17.7868" x2="13.4755" y2="29.6934" gradientUnits="userSpaceOnUse">
<stop offset="0.2888" stop-color="white"/>
<stop offset="0.7796" stop-color="white" stop-opacity="0"/>
</linearGradient>
<linearGradient id="paint1_linear_5_86" x1="2.02178" y1="22.6373" x2="14.419" y2="22.6373" gradientUnits="userSpaceOnUse">
<stop stop-color="#B1B5C4"/>
<stop offset="0.9952" stop-color="#B1B5C4"/>
</linearGradient>
<clipPath id="clip0_5_86">
<rect width="121.25" height="30" fill="white" transform="translate(0.703125)"/>
</clipPath>
</defs>
</svg>
