<?xml version="1.0" standalone="no"?>
<svg version="1.0" xmlns="http://www.w3.org/2000/svg"
 width="200" height="50" viewBox="0 0 2000 500">
<g transform="translate(0,500) scale(0.1,-0.1)" fill="#B1B5C4">
<path d="M1090 3839 c-366 -33 -620 -191 -716 -444 -39 -105 -54 -188 -54
-309 0 -128 13 -210 46 -284 13 -29 24 -56 24 -61 0 -14 83 -122 132 -172 103
-105 235 -193 593 -394 230 -130 347 -221 399 -310 32 -54 44 -131 33 -210 -9
-67 -9 -66 -40 -117 -86 -143 -365 -142 -462 2 l-30 45 -3 178 -4 177 -354 0
-354 0 0 -147 c0 -82 7 -181 14 -223 47 -253 176 -415 414 -521 275 -121 721
-129 1030 -17 198 72 345 217 411 407 32 91 54 271 48 396 -5 119 -35 253 -70
320 -44 82 -132 182 -235 267 -46 38 -203 139 -287 184 -49 27 -99 54 -110 61
-11 7 -27 16 -35 20 -8 4 -78 43 -155 86 -147 83 -253 162 -275 203 -8 13 -17
24 -21 24 -4 0 -12 15 -18 33 -46 147 -1 292 107 339 35 16 68 21 128 21 103
0 164 -29 209 -101 29 -45 30 -52 33 -179 l4 -133 329 0 329 0 0 148 c0 176
-20 268 -80 377 -64 115 -151 191 -290 251 -178 77 -428 107 -690 83z"/>
<path d="M9658 3815 c-378 -62 -596 -244 -658 -552 -11 -57 -20 -139 -20 -190
0 -89 26 -229 54 -297 51 -122 180 -256 364 -379 116 -77 173 -111 347 -207
107 -59 124 -69 167 -97 117 -75 175 -124 230 -193 50 -63 61 -106 56 -211 -6
-103 -35 -164 -97 -203 -138 -88 -351 -45 -412 82 -20 41 -23 67 -27 210 l-4
162 -349 0 -349 0 0 -127 c0 -149 12 -241 42 -338 26 -81 30 -90 83 -170 81
-123 201 -210 370 -268 154 -53 222 -62 470 -62 247 0 321 11 472 69 129 50
179 81 264 165 89 89 128 158 166 299 25 88 27 113 27 282 1 167 -2 192 -23
260 -30 95 -95 202 -169 275 -60 61 -200 168 -292 224 -60 37 -74 44 -270 151
-261 143 -358 212 -411 294 -37 56 -39 64 -39 137 0 83 21 150 59 188 86 86
272 87 369 2 44 -38 64 -106 70 -228 l5 -113 323 0 324 0 0 83 c0 389 -124
593 -428 702 -123 44 -203 56 -422 60 -147 3 -230 0 -292 -10z"/>
<path d="M17705 3814 c-49 -8 -112 -21 -140 -30 -293 -95 -439 -245 -511 -524
-18 -71 -19 -119 -19 -855 0 -857 -3 -816 62 -969 70 -166 244 -310 453 -374
232 -71 534 -76 784 -13 262 67 450 220 521 426 45 128 47 154 52 633 l5 462
-471 0 -471 0 0 -189 c0 -222 -17 -201 163 -201 l117 0 0 -233 c0 -284 -7
-318 -80 -389 -57 -55 -105 -71 -205 -71 -97 0 -149 17 -200 64 -84 77 -80 37
-80 869 l0 735 23 50 c12 27 30 58 40 68 96 108 321 111 420 7 55 -57 65 -92
70 -242 l5 -138 316 0 c174 0 322 4 330 9 11 7 13 40 9 172 -5 142 -9 175 -32
247 -89 274 -302 436 -641 487 -124 19 -396 18 -520 -1z"/>
<path d="M3146 3743 c-7 -26 -50 -256 -60 -328 -3 -16 -37 -203 -76 -414 -39
-211 -75 -411 -80 -445 -6 -33 -14 -81 -19 -106 -5 -25 -21 -108 -35 -185 -14
-77 -32 -178 -41 -225 -8 -47 -25 -137 -36 -200 -11 -63 -25 -140 -31 -170 -6
-30 -14 -75 -18 -100 -4 -25 -13 -70 -19 -100 -8 -46 -45 -256 -66 -377 l-6
-33 354 0 353 0 13 78 c7 42 17 109 22 147 18 127 30 209 44 295 8 47 19 123
25 170 6 47 15 110 20 140 16 103 30 195 61 405 16 116 46 316 65 445 19 129
48 327 64 440 17 113 32 214 34 225 3 11 8 41 11 68 12 93 27 51 60 -173 9
-58 20 -132 25 -165 5 -33 14 -100 21 -150 6 -49 15 -112 20 -140 5 -27 29
-194 54 -370 24 -176 52 -365 60 -420 8 -55 20 -132 25 -172 5 -39 21 -152 35
-250 15 -98 30 -207 35 -243 5 -36 14 -101 20 -145 6 -44 15 -102 18 -130 l7
-50 353 -3 c193 -1 352 1 352 5 0 8 -45 267 -60 343 -5 25 -14 77 -21 115 -6
39 -20 113 -30 165 -17 93 -39 215 -60 335 -6 33 -17 92 -24 130 -8 39 -26
140 -40 225 -15 85 -30 173 -35 195 -5 22 -18 92 -29 155 -50 287 -75 424
-126 700 -14 74 -30 164 -36 200 -6 36 -14 79 -18 95 l-7 30 -586 3 c-552 2
-587 1 -592 -15z"/>
<path d="M5406 3438 c-4 -178 -11 -519 -16 -758 -21 -1027 -30 -1480 -33
-1547 l-2 -73 326 0 327 0 6 263 c3 144 7 692 9 1217 2 828 5 955 17 955 8 0
16 -11 18 -25 2 -14 19 -113 38 -220 19 -107 44 -244 54 -305 11 -60 27 -144
35 -185 14 -66 33 -171 66 -360 5 -30 13 -77 18 -105 24 -129 64 -345 71 -385
4 -25 20 -108 34 -185 49 -272 54 -301 76 -420 11 -66 26 -147 33 -180 l12
-60 338 -3 337 -2 0 24 c0 13 6 57 14 97 8 41 24 126 36 189 18 99 34 189 80
435 5 28 14 79 20 115 6 36 15 83 20 105 5 22 16 83 25 135 14 86 28 166 55
305 5 28 18 102 30 165 11 63 30 167 41 230 12 63 27 149 34 190 37 202 74
401 80 428 3 13 9 21 14 18 4 -3 11 -378 15 -833 3 -456 9 -1002 12 -1215 l7
-388 323 0 324 0 0 118 c0 64 -7 425 -15 802 -8 377 -19 926 -25 1220 -6 294
-13 541 -15 548 -4 10 -117 12 -542 10 l-538 -3 -6 -55 c-4 -30 -15 -95 -24
-145 -9 -49 -21 -119 -25 -155 -8 -58 -23 -155 -60 -385 -29 -182 -52 -330
-70 -440 -11 -66 -29 -181 -40 -255 -69 -450 -99 -623 -109 -633 -5 -5 -14 21
-20 60 -7 37 -16 93 -22 123 -5 30 -23 141 -39 245 -46 298 -69 446 -80 500
-5 28 -14 88 -20 135 -10 76 -33 226 -60 380 -11 64 -71 441 -77 485 -2 17 -9
56 -15 88 l-11 57 -537 0 -537 0 -7 -322z"/>
<path d="M11480 2758 c0 -962 4 -1125 31 -1243 21 -93 94 -230 155 -291 180
-180 433 -254 819 -241 416 15 661 140 785 402 78 166 79 180 80 1358 l0 1017
-335 0 -334 0 -3 -1067 c-3 -1015 -4 -1070 -21 -1102 -23 -41 -67 -85 -110
-108 -24 -14 -55 -18 -132 -18 -91 0 -104 3 -146 27 -51 30 -92 84 -108 143
-7 27 -11 369 -11 1083 l0 1042 -335 0 -335 0 0 -1002z"/>
<path d="M14095 3718 c-3 -24 -5 -625 -3 -1337 l3 -1293 324 -2 324 -1 -7 405
c-4 223 -11 635 -16 915 -12 647 -12 885 -1 885 4 0 21 -44 36 -97 15 -54 39
-136 54 -183 16 -47 34 -105 41 -130 7 -25 23 -79 35 -120 13 -41 32 -106 44
-145 23 -80 75 -252 121 -405 27 -89 50 -165 100 -335 5 -16 21 -73 35 -125
14 -52 37 -126 49 -165 13 -38 29 -92 36 -120 6 -27 16 -59 20 -70 8 -20 16
-44 59 -195 33 -111 36 -117 63 -114 12 1 222 3 466 3 l442 1 0 1335 0 1335
-320 0 c-298 0 -320 -1 -320 -17 -3 -181 2 -732 10 -1053 17 -723 19 -1061 7
-1057 -6 2 -16 23 -23 48 -7 24 -29 100 -49 169 -41 139 -113 389 -175 610
-22 80 -49 173 -60 207 -11 34 -20 69 -20 77 0 9 -6 30 -14 48 -8 18 -19 51
-25 73 -6 22 -45 159 -87 305 -42 146 -89 310 -104 365 -15 55 -36 128 -46
162 l-19 63 -487 0 -487 0 -6 -42z"/>
</g>
</svg>